# xmcd
#
# Track frame offsets: 
#        183
#        14410
#        28220
#        39983
#        51760
#        66985
#        79663
#        93930
#        106285
#        123163
#        135028
#        144093
#        159763
#        172363
#        189688
#        201988
#        214890
#        228105
#        239785
#        255688
#        268058
#        282345
#        299793
#        313145
#        327610
#
# Disc length: 4505 seconds
#
# Revision: 0
# Processed by: cddbd v1.5.2PL0 Copyright (c) Steve Scherf et al.
# Submitted via: ExactAudioCopyFreeDBPlugin 1.0
#
DISCID=7b119719
DTITLE=Danny Williams - The Best Of The EMI Years
DYEAR=1900
DGENRE=Easy Listening
TTITLE0=The Miracle Of You
TTITLE1=More
TTITLE2=Moon River
TTITLE3=I'm Beginning To See The Light
TTITLE4=As Time Goes By
TTITLE5=The Wonderful World Of The Young
TTITLE6=I Talk To The Trees
TTITLE7=It Might As Well Be Spring
TTITLE8=The Nearness Of You
TTITLE9=Just In Time
TTITLE10=In Love For The Very First Time
TTITLE11=In Other Words
TTITLE12=Jeannie
TTITLE13=Too Young
TTITLE14=Charade
TTITLE15=Where Or When
TTITLE16=My Own True Love
TTITLE17=Tears
TTITLE18=Love Is A Many-Splendoured Thing
TTITLE19=My Heart Tells Me
TTITLE20=The Days Of Wine And Roses
TTITLE21=Portrait Of My Love
TTITLE22=We Will Never Be As Young As This Again
TTITLE23=Now It Can Be Told
TTITLE24=White On White
EXTD=
EXTT0=
EXTT1=
EXTT2=
EXTT3=
EXTT4=
EXTT5=
EXTT6=
EXTT7=
EXTT8=
EXTT9=
EXTT10=
EXTT11=
EXTT12=
EXTT13=
EXTT14=
EXTT15=
EXTT16=
EXTT17=
EXTT18=
EXTT19=
EXTT20=
EXTT21=
EXTT22=
EXTT23=
EXTT24=
PLAYORDER=
